<?xml version="1.0" encoding="UTF-8"?>
<svg id="uuid-cc85bb02-107c-4d91-925c-2a67d11f603c" data-name="Layer 2" xmlns="http://www.w3.org/2000/svg" viewBox="0 0 32 32">
  <g id="uuid-18755a56-18c3-4550-a2e9-88aa47870d3c" data-name="Layer 1">
    <path d="M18.72,19.82v11.93c-.94.16-1.8.25-2.58.25-4.61,0-8.45-1.52-11.53-4.56C1.54,24.4,0,20.58,0,16S1.55,7.76,4.66,4.66C7.76,1.55,11.54,0,15.98,0c4.96,0,8.87,1.45,11.73,4.36,2.86,2.91,4.29,6.88,4.29,11.92v15.08h-11.5v-14.24c0-1.62-.39-2.92-1.18-3.88s-1.85-1.45-3.18-1.45c-1.21,0-2.25.44-3.14,1.33s-1.32,1.93-1.32,3.14c0,1.27.4,2.32,1.2,3.14.8.82,1.81,1.23,3.04,1.23,1,0,1.94-.27,2.8-.8Z" fill="#ff7f00"/>
  </g>
</svg>